<mxfile host="app.diagrams.net" agent="Mozilla/5.0 (Macintosh; Intel Mac OS X 10_15_7) AppleWebKit/605.1.15 (KHTML, like Gecko) Version/18.3 Safari/605.1.15" version="26.2.9">
  <diagram name="Page-1" id="lnuxCtFCWeqhric__p-M">
    <mxGraphModel dx="1188" dy="802" grid="1" gridSize="10" guides="1" tooltips="1" connect="1" arrows="1" fold="1" page="1" pageScale="1" pageWidth="583" pageHeight="827" math="0" shadow="0">
      <root>
        <mxCell id="0" />
        <mxCell id="1" parent="0" />
        <mxCell id="IqPdjmII7tO_Si4n46rZ-1" value="" style="group;fillColor=light-dark(#FFCCCC,#415757);strokeColor=#36393d;" vertex="1" connectable="0" parent="1">
          <mxGeometry x="30" y="70" width="1060" height="1250" as="geometry" />
        </mxCell>
        <mxCell id="IqPdjmII7tO_Si4n46rZ-2" value="" style="swimlane;shape=mxgraph.bootstrap.anchor;strokeColor=#C4C4C4;fillColor=#ffffff;fontColor=#999999;fontStyle=0;childLayout=stackLayout;horizontal=1;startSize=0;horizontalStack=0;resizeParent=1;resizeParentMax=0;resizeLast=0;collapsible=0;marginBottom=0;whiteSpace=wrap;html=1;" vertex="1" parent="IqPdjmII7tO_Si4n46rZ-1">
          <mxGeometry x="710" y="510" width="350" height="80" as="geometry" />
        </mxCell>
        <mxCell id="IqPdjmII7tO_Si4n46rZ-3" value="let, apply, run, also, with" style="text;strokeColor=inherit;align=left;verticalAlign=middle;spacingLeft=10;spacingRight=10;overflow=hidden;points=[[0,0.5],[1,0.5]];portConstraint=eastwest;rotatable=0;whiteSpace=wrap;html=1;shape=mxgraph.bootstrap.topButton;rSize=5;fillColor=inherit;fontColor=inherit;fontSize=12;" vertex="1" parent="IqPdjmII7tO_Si4n46rZ-2">
          <mxGeometry width="350" height="20" as="geometry" />
        </mxCell>
        <mxCell id="IqPdjmII7tO_Si4n46rZ-4" value="" style="shape=mxgraph.ios7.misc.right;strokeColor=#C4C4C4;strokeWidth=3;" vertex="1" parent="IqPdjmII7tO_Si4n46rZ-3">
          <mxGeometry x="1" y="0.5" width="6" height="12" relative="1" as="geometry">
            <mxPoint x="-25" y="-6" as="offset" />
          </mxGeometry>
        </mxCell>
        <mxCell id="IqPdjmII7tO_Si4n46rZ-5" value="Null Safety" style="text;align=left;verticalAlign=middle;spacingLeft=10;spacingRight=10;overflow=hidden;points=[[0,0.5],[1,0.5]];portConstraint=eastwest;rotatable=0;whiteSpace=wrap;html=1;rSize=5;fillColor=none;fontSize=12;fontStyle=0;fontColor=inherit;fontFamily=Helvetica;" vertex="1" parent="IqPdjmII7tO_Si4n46rZ-2">
          <mxGeometry y="20" width="350" height="20" as="geometry" />
        </mxCell>
        <mxCell id="IqPdjmII7tO_Si4n46rZ-6" value="" style="shape=mxgraph.ios7.misc.right;strokeColor=inherit;strokeWidth=3;align=left;verticalAlign=middle;spacingLeft=10;spacingRight=10;fontFamily=Helvetica;fontSize=12;fontColor=inherit;fillColor=inherit;gradientColor=none;" vertex="1" parent="IqPdjmII7tO_Si4n46rZ-5">
          <mxGeometry x="1" y="0.5" width="6" height="12" relative="1" as="geometry">
            <mxPoint x="-25" y="-6" as="offset" />
          </mxGeometry>
        </mxCell>
        <mxCell id="IqPdjmII7tO_Si4n46rZ-7" value="String handeling" style="text;strokeColor=inherit;align=left;verticalAlign=middle;spacingLeft=10;spacingRight=10;overflow=hidden;points=[[0,0.5],[1,0.5]];portConstraint=eastwest;rotatable=0;whiteSpace=wrap;html=1;rSize=5;fillColor=inherit;fontColor=inherit;fontSize=12;" vertex="1" parent="IqPdjmII7tO_Si4n46rZ-2">
          <mxGeometry y="40" width="350" height="20" as="geometry" />
        </mxCell>
        <mxCell id="IqPdjmII7tO_Si4n46rZ-8" value="" style="shape=mxgraph.ios7.misc.right;strokeColor=#C4C4C4;strokeWidth=3;" vertex="1" parent="IqPdjmII7tO_Si4n46rZ-7">
          <mxGeometry x="1" y="0.5" width="6" height="12" relative="1" as="geometry">
            <mxPoint x="-25" y="-6" as="offset" />
          </mxGeometry>
        </mxCell>
        <mxCell id="IqPdjmII7tO_Si4n46rZ-9" value="Collections" style="text;strokeColor=inherit;align=left;verticalAlign=middle;spacingLeft=10;spacingRight=10;overflow=hidden;points=[[0,0.5],[1,0.5]];portConstraint=eastwest;rotatable=0;whiteSpace=wrap;html=1;shape=mxgraph.bootstrap.bottomButton;rSize=5;fillColor=inherit;fontColor=inherit;fontSize=12;" vertex="1" parent="IqPdjmII7tO_Si4n46rZ-2">
          <mxGeometry y="60" width="350" height="20" as="geometry" />
        </mxCell>
        <mxCell id="IqPdjmII7tO_Si4n46rZ-10" value="" style="shape=mxgraph.ios7.misc.right;strokeColor=#C4C4C4;strokeWidth=3;" vertex="1" parent="IqPdjmII7tO_Si4n46rZ-9">
          <mxGeometry x="1" y="0.5" width="6" height="12" relative="1" as="geometry">
            <mxPoint x="-25" y="-6" as="offset" />
          </mxGeometry>
        </mxCell>
        <mxCell id="IqPdjmII7tO_Si4n46rZ-11" value="" style="group" vertex="1" connectable="0" parent="IqPdjmII7tO_Si4n46rZ-1">
          <mxGeometry width="1007.5" height="1250" as="geometry" />
        </mxCell>
        <mxCell id="IqPdjmII7tO_Si4n46rZ-12" value="&lt;font style=&quot;font-size: 24px;&quot;&gt;KOTLIN&lt;/font&gt;" style="rounded=0;whiteSpace=wrap;html=1;fillColor=light-dark(#eeeeee, #c0c0c0);strokeColor=#36393d;gradientColor=default;gradientDirection=west;" vertex="1" parent="IqPdjmII7tO_Si4n46rZ-11">
          <mxGeometry x="430" width="220" height="60" as="geometry" />
        </mxCell>
        <mxCell id="IqPdjmII7tO_Si4n46rZ-13" value="&lt;div&gt;&lt;br&gt;&lt;/div&gt;" style="strokeWidth=1;html=1;shadow=0;dashed=0;shape=mxgraph.android.rect;rounded=1;fillColor=light-dark(#eeeeee, #c0c0c0);strokeColor=#36393d;gradientColor=default;gradientDirection=west;" vertex="1" parent="IqPdjmII7tO_Si4n46rZ-11">
          <mxGeometry x="430" y="160" width="200" height="70" as="geometry" />
        </mxCell>
        <mxCell id="IqPdjmII7tO_Si4n46rZ-14" value="&lt;p style=&quot;caret-color: rgb(0, 0, 0); text-align: start; white-space: normal;&quot; class=&quot;p1&quot;&gt;&lt;font face=&quot;Times New Roman&quot; color=&quot;#3399ff&quot;&gt;&lt;b&gt;Kolin Basics&lt;/b&gt;&lt;/font&gt;&lt;/p&gt;" style="strokeWidth=1;html=1;shadow=0;dashed=0;shape=mxgraph.android.spinner2;fontStyle=0;fontColor=#ffffff;align=center;verticalAlign=middle;strokeColor=#666666;fillColor=#666666;" vertex="1" parent="IqPdjmII7tO_Si4n46rZ-13">
          <mxGeometry x="17.094017094017094" y="9.999999999999998" width="170.94017094017096" height="49.99999999999999" as="geometry" />
        </mxCell>
        <mxCell id="IqPdjmII7tO_Si4n46rZ-15" value="&lt;h3&gt;&lt;span style=&quot;color: rgba(0, 0, 0, 0);&quot;&gt;&lt;font style=&quot;font-size: 12px;&quot; face=&quot;Times New Roman&quot;&gt;•&lt;span class=&quot;Apple-tab-span&quot;&gt;&amp;nbsp;&lt;/span&gt;Syntax, variables, control flow&lt;/font&gt;&lt;/span&gt;&lt;/h3&gt;&lt;h3&gt;&lt;font style=&quot;font-size: 12px;&quot; face=&quot;Times New Roman&quot;&gt;&lt;span style=&quot;color: rgba(0, 0, 0, 0);&quot;&gt;&lt;br&gt;&lt;/span&gt;&lt;span style=&quot;color: rgba(0, 0, 0, 0);&quot;&gt;•&lt;span class=&quot;Apple-tab-span&quot;&gt;&amp;nbsp;&lt;/span&gt;Optionals &amp;amp; Functions&lt;/span&gt;&lt;/font&gt;&lt;/h3&gt;&lt;h3&gt;&lt;font style=&quot;font-size: 12px;&quot; face=&quot;Times New Roman&quot;&gt;&lt;span style=&quot;color: rgba(0, 0, 0, 0);&quot;&gt;&lt;br&gt;&lt;/span&gt;&lt;span style=&quot;color: rgba(0, 0, 0, 0);&quot;&gt;•&lt;span class=&quot;Apple-tab-span&quot;&gt;&amp;nbsp;&lt;/span&gt;Object-Oriented Programming&lt;/span&gt;&lt;/font&gt;&lt;/h3&gt;" style="shape=offPageConnector;whiteSpace=wrap;html=1;size=0.28571428571428464;align=right;fillColor=#f5f5f5;gradientColor=#b3b3b3;strokeColor=#666666;direction=south;" vertex="1" parent="IqPdjmII7tO_Si4n46rZ-11">
          <mxGeometry x="630" y="120" width="270" height="130" as="geometry" />
        </mxCell>
        <mxCell id="IqPdjmII7tO_Si4n46rZ-16" value="&lt;p style=&quot;caret-color: rgb(0, 0, 0); color: rgb(0, 0, 0);&quot; class=&quot;p1&quot;&gt;&lt;/p&gt;&lt;ul&gt;&lt;li&gt;&lt;span style=&quot;font-size: 16px;&quot;&gt;Swift Syntax&lt;/span&gt;&lt;/li&gt;&lt;li&gt;&lt;span style=&quot;font-size: 16px;&quot;&gt;Variables and&amp;nbsp;&lt;/span&gt;&lt;font size=&quot;3&quot;&gt;Constants&lt;/font&gt;&lt;/li&gt;&lt;li&gt;&lt;font size=&quot;3&quot;&gt;Control Flow&lt;/font&gt;&lt;/li&gt;&lt;li&gt;&lt;font size=&quot;3&quot;&gt;String Templets&lt;/font&gt;&lt;/li&gt;&lt;/ul&gt;&lt;p&gt;&lt;/p&gt;" style="rounded=1;whiteSpace=wrap;html=1;strokeWidth=2;fillWeight=4;hachureGap=8;hachureAngle=45;fillColor=light-dark(#1BA1E2,#70BBB2);sketch=1;fillStyle=solid;align=left;" vertex="1" parent="IqPdjmII7tO_Si4n46rZ-11">
          <mxGeometry x="30" y="60" width="240" height="90" as="geometry" />
        </mxCell>
        <mxCell id="IqPdjmII7tO_Si4n46rZ-17" value="&lt;h2&gt;&lt;b style=&quot;color: light-dark(rgb(255, 255, 255), rgb(196, 251, 255));&quot;&gt;&lt;font face=&quot;Times New Roman&quot;&gt;OOP Concepts in Swift&amp;nbsp;&lt;/font&gt;&lt;/b&gt;&lt;/h2&gt;&lt;div&gt;&lt;b&gt;&lt;font face=&quot;Times New Roman&quot;&gt;&lt;h3 style=&quot;color: light-dark(rgb(255, 255, 255), rgb(83, 213, 253));&quot;&gt;&lt;b&gt;1. Class &amp;amp; Object&lt;br&gt;&lt;/b&gt;&lt;b&gt;2. Encapsulation&lt;br&gt;&lt;/b&gt;&lt;b&gt;3. Inheritance&lt;br&gt;&lt;/b&gt;&lt;b&gt;4. Polymorphism&lt;/b&gt;&lt;/h3&gt;&lt;/font&gt;&lt;/b&gt;&lt;/div&gt;" style="shape=tapeData;whiteSpace=wrap;html=1;perimeter=ellipsePerimeter;fillColor=light-dark(#1BA1E2,#70BBB2);strokeColor=light-dark(#0e8088, #ffffff);fillStyle=solid;strokeWidth=3;" vertex="1" parent="IqPdjmII7tO_Si4n46rZ-11">
          <mxGeometry x="30" y="200" width="235" height="201" as="geometry" />
        </mxCell>
        <mxCell id="IqPdjmII7tO_Si4n46rZ-18" value="" style="endArrow=none;html=1;rounded=0;entryX=0;entryY=0.5;entryDx=0;entryDy=0;flowAnimation=1;" edge="1" parent="IqPdjmII7tO_Si4n46rZ-11" target="IqPdjmII7tO_Si4n46rZ-13">
          <mxGeometry width="50" height="50" relative="1" as="geometry">
            <mxPoint x="340" y="193" as="sourcePoint" />
            <mxPoint x="360" y="180" as="targetPoint" />
          </mxGeometry>
        </mxCell>
        <mxCell id="IqPdjmII7tO_Si4n46rZ-19" value="" style="endArrow=none;html=1;rounded=0;entryX=0;entryY=0.5;entryDx=0;entryDy=0;flowAnimation=1;" edge="1" parent="IqPdjmII7tO_Si4n46rZ-11">
          <mxGeometry width="50" height="50" relative="1" as="geometry">
            <mxPoint x="270" y="110" as="sourcePoint" />
            <mxPoint x="340" y="110" as="targetPoint" />
          </mxGeometry>
        </mxCell>
        <mxCell id="IqPdjmII7tO_Si4n46rZ-20" value="" style="endArrow=none;html=1;rounded=0;entryX=0;entryY=0.5;entryDx=0;entryDy=0;flowAnimation=1;" edge="1" parent="IqPdjmII7tO_Si4n46rZ-11">
          <mxGeometry width="50" height="50" relative="1" as="geometry">
            <mxPoint x="270" y="290" as="sourcePoint" />
            <mxPoint x="340" y="290" as="targetPoint" />
          </mxGeometry>
        </mxCell>
        <mxCell id="IqPdjmII7tO_Si4n46rZ-21" value="" style="endArrow=none;html=1;rounded=0;flowAnimation=1;" edge="1" parent="IqPdjmII7tO_Si4n46rZ-11">
          <mxGeometry width="50" height="50" relative="1" as="geometry">
            <mxPoint x="340" y="290" as="sourcePoint" />
            <mxPoint x="340" y="110" as="targetPoint" />
          </mxGeometry>
        </mxCell>
        <mxCell id="IqPdjmII7tO_Si4n46rZ-22" value="&lt;div&gt;&lt;br&gt;&lt;/div&gt;" style="strokeWidth=1;html=1;shadow=0;dashed=0;shape=mxgraph.android.rect;rounded=1;fillColor=light-dark(#eeeeee, #c0c0c0);strokeColor=#36393d;gradientColor=default;gradientDirection=west;" vertex="1" parent="IqPdjmII7tO_Si4n46rZ-11">
          <mxGeometry x="430" y="360" width="200" height="70" as="geometry" />
        </mxCell>
        <mxCell id="IqPdjmII7tO_Si4n46rZ-23" value="&lt;p style=&quot;caret-color: rgb(0, 0, 0); text-align: start; white-space: normal;&quot; class=&quot;p1&quot;&gt;&lt;font face=&quot;Times New Roman&quot; color=&quot;#74a7fe&quot;&gt;&lt;b&gt;Programing &amp;amp;&lt;/b&gt;&lt;/font&gt;&lt;/p&gt;&lt;p style=&quot;text-align: start; caret-color: rgb(0, 0, 0);&quot; class=&quot;p1&quot;&gt;&lt;font face=&quot;Times New Roman&quot; color=&quot;#74a7fe&quot;&gt;&lt;b&gt;&lt;span style=&quot;text-wrap-mode: wrap;&quot;&gt;Standard&amp;nbsp;&lt;/span&gt;&lt;span style=&quot;caret-color: rgb(237, 237, 237); text-wrap-mode: wrap;&quot;&gt;LIbrary&lt;/span&gt;&lt;span style=&quot;text-wrap-mode: wrap;&quot;&gt;&amp;nbsp;&lt;/span&gt;&lt;/b&gt;&lt;/font&gt;&lt;/p&gt;" style="strokeWidth=1;html=1;shadow=0;dashed=0;shape=mxgraph.android.spinner2;fontStyle=0;fontColor=#ffffff;align=center;verticalAlign=middle;strokeColor=#666666;fillColor=#666666;" vertex="1" parent="IqPdjmII7tO_Si4n46rZ-22">
          <mxGeometry x="17.09401709401709" y="10" width="170.94017094017093" height="50" as="geometry" />
        </mxCell>
        <mxCell id="IqPdjmII7tO_Si4n46rZ-24" style="edgeStyle=orthogonalEdgeStyle;rounded=0;orthogonalLoop=1;jettySize=auto;html=1;flowAnimation=1;" edge="1" parent="IqPdjmII7tO_Si4n46rZ-11" source="IqPdjmII7tO_Si4n46rZ-25">
          <mxGeometry relative="1" as="geometry">
            <mxPoint x="180" y="500" as="targetPoint" />
          </mxGeometry>
        </mxCell>
        <mxCell id="IqPdjmII7tO_Si4n46rZ-25" value="&lt;font size=&quot;3&quot;&gt;&lt;b&gt;Functional Programming&amp;nbsp;&lt;/b&gt;&lt;/font&gt;" style="html=1;shadow=0;dashed=0;shape=mxgraph.ios.rrect;rSize=3;fontSize=8;fontColor=#ffffff;strokeColor=#ffffff;fillColor=#497198;gradientColor=#c5cee1;opacity=80;whiteSpace=wrap;sketch=0;hachureGap=4;pointerEvents=0;fontFamily=Helvetica;" vertex="1" parent="IqPdjmII7tO_Si4n46rZ-11">
          <mxGeometry x="320" y="450" width="129.75" height="40" as="geometry" />
        </mxCell>
        <mxCell id="IqPdjmII7tO_Si4n46rZ-26" value="&lt;font size=&quot;3&quot;&gt;&lt;b&gt;Standard Library&amp;nbsp;&lt;/b&gt;&lt;/font&gt;" style="html=1;shadow=0;dashed=0;shape=mxgraph.ios.rrect;rSize=3;fontSize=8;fontColor=#ffffff;strokeColor=#ffffff;fillColor=#497198;gradientColor=#c5cee1;opacity=80;whiteSpace=wrap;sketch=0;hachureGap=4;pointerEvents=0;fontFamily=Helvetica;" vertex="1" parent="IqPdjmII7tO_Si4n46rZ-11">
          <mxGeometry x="610" y="450" width="129.75" height="40" as="geometry" />
        </mxCell>
        <mxCell id="IqPdjmII7tO_Si4n46rZ-27" value="" style="shape=flexArrow;endArrow=classic;html=1;rounded=0;exitX=0.4;exitY=1.083;exitDx=0;exitDy=0;exitPerimeter=0;entryX=0.458;entryY=-0.061;entryDx=0;entryDy=0;entryPerimeter=0;" edge="1" parent="IqPdjmII7tO_Si4n46rZ-11">
          <mxGeometry width="50" height="50" relative="1" as="geometry">
            <mxPoint x="532" y="64.98000000000002" as="sourcePoint" />
            <mxPoint x="531.02" y="155.97399999999993" as="targetPoint" />
          </mxGeometry>
        </mxCell>
        <mxCell id="IqPdjmII7tO_Si4n46rZ-28" value="" style="shape=flexArrow;endArrow=classic;html=1;rounded=0;exitX=0.4;exitY=1.083;exitDx=0;exitDy=0;exitPerimeter=0;entryX=0.5;entryY=0;entryDx=0;entryDy=0;" edge="1" parent="IqPdjmII7tO_Si4n46rZ-11" target="IqPdjmII7tO_Si4n46rZ-22">
          <mxGeometry width="50" height="50" relative="1" as="geometry">
            <mxPoint x="530.48" y="226" as="sourcePoint" />
            <mxPoint x="529.5" y="316.9939999999999" as="targetPoint" />
          </mxGeometry>
        </mxCell>
        <mxCell id="IqPdjmII7tO_Si4n46rZ-29" value="" style="html=1;shadow=0;dashed=0;align=center;verticalAlign=middle;shape=mxgraph.arrows2.jumpInArrow;dy=15;dx=38;arrowHead=46;strokeWidth=3;sketch=1;curveFitting=1;jiggle=2;" vertex="1" parent="IqPdjmII7tO_Si4n46rZ-11">
          <mxGeometry x="340" y="370" width="90" height="70" as="geometry" />
        </mxCell>
        <mxCell id="IqPdjmII7tO_Si4n46rZ-30" value="" style="html=1;shadow=0;dashed=0;align=center;verticalAlign=middle;shape=mxgraph.arrows2.jumpInArrow;dy=15;dx=38;arrowHead=46;flipV=0;flipH=1;strokeWidth=3;sketch=1;curveFitting=1;jiggle=2;" vertex="1" parent="IqPdjmII7tO_Si4n46rZ-11">
          <mxGeometry x="629.88" y="370" width="90" height="70" as="geometry" />
        </mxCell>
        <mxCell id="IqPdjmII7tO_Si4n46rZ-31" value="" style="swimlane;shape=mxgraph.bootstrap.anchor;strokeColor=#C4C4C4;fillColor=#ffffff;fontColor=#999999;fontStyle=0;childLayout=stackLayout;horizontal=1;startSize=0;horizontalStack=0;resizeParent=1;resizeParentMax=0;resizeLast=0;collapsible=0;marginBottom=0;whiteSpace=wrap;html=1;" vertex="1" parent="IqPdjmII7tO_Si4n46rZ-11">
          <mxGeometry y="510" width="350" height="80" as="geometry" />
        </mxCell>
        <mxCell id="IqPdjmII7tO_Si4n46rZ-32" value="Lambda Expression" style="text;strokeColor=inherit;align=left;verticalAlign=middle;spacingLeft=10;spacingRight=10;overflow=hidden;points=[[0,0.5],[1,0.5]];portConstraint=eastwest;rotatable=0;whiteSpace=wrap;html=1;shape=mxgraph.bootstrap.topButton;rSize=5;fillColor=inherit;fontColor=inherit;fontSize=12;" vertex="1" parent="IqPdjmII7tO_Si4n46rZ-31">
          <mxGeometry width="350" height="20" as="geometry" />
        </mxCell>
        <mxCell id="IqPdjmII7tO_Si4n46rZ-33" value="" style="shape=mxgraph.ios7.misc.right;strokeColor=#C4C4C4;strokeWidth=3;" vertex="1" parent="IqPdjmII7tO_Si4n46rZ-32">
          <mxGeometry x="1" y="0.5" width="6" height="12" relative="1" as="geometry">
            <mxPoint x="-25" y="-6" as="offset" />
          </mxGeometry>
        </mxCell>
        <mxCell id="IqPdjmII7tO_Si4n46rZ-34" value="Higher order functionality&amp;nbsp;" style="text;align=left;verticalAlign=middle;spacingLeft=10;spacingRight=10;overflow=hidden;points=[[0,0.5],[1,0.5]];portConstraint=eastwest;rotatable=0;whiteSpace=wrap;html=1;rSize=5;fillColor=none;fontSize=12;fontStyle=0;fontColor=inherit;fontFamily=Helvetica;" vertex="1" parent="IqPdjmII7tO_Si4n46rZ-31">
          <mxGeometry y="20" width="350" height="20" as="geometry" />
        </mxCell>
        <mxCell id="IqPdjmII7tO_Si4n46rZ-35" value="" style="shape=mxgraph.ios7.misc.right;strokeColor=inherit;strokeWidth=3;align=left;verticalAlign=middle;spacingLeft=10;spacingRight=10;fontFamily=Helvetica;fontSize=12;fontColor=inherit;fillColor=inherit;gradientColor=none;" vertex="1" parent="IqPdjmII7tO_Si4n46rZ-34">
          <mxGeometry x="1" y="0.5" width="6" height="12" relative="1" as="geometry">
            <mxPoint x="-25" y="-6" as="offset" />
          </mxGeometry>
        </mxCell>
        <mxCell id="IqPdjmII7tO_Si4n46rZ-36" value="Extension function" style="text;strokeColor=inherit;align=left;verticalAlign=middle;spacingLeft=10;spacingRight=10;overflow=hidden;points=[[0,0.5],[1,0.5]];portConstraint=eastwest;rotatable=0;whiteSpace=wrap;html=1;rSize=5;fillColor=inherit;fontColor=inherit;fontSize=12;" vertex="1" parent="IqPdjmII7tO_Si4n46rZ-31">
          <mxGeometry y="40" width="350" height="20" as="geometry" />
        </mxCell>
        <mxCell id="IqPdjmII7tO_Si4n46rZ-37" value="" style="shape=mxgraph.ios7.misc.right;strokeColor=#C4C4C4;strokeWidth=3;" vertex="1" parent="IqPdjmII7tO_Si4n46rZ-36">
          <mxGeometry x="1" y="0.5" width="6" height="12" relative="1" as="geometry">
            <mxPoint x="-25" y="-6" as="offset" />
          </mxGeometry>
        </mxCell>
        <mxCell id="IqPdjmII7tO_Si4n46rZ-38" value="Collection and operation" style="text;strokeColor=inherit;align=left;verticalAlign=middle;spacingLeft=10;spacingRight=10;overflow=hidden;points=[[0,0.5],[1,0.5]];portConstraint=eastwest;rotatable=0;whiteSpace=wrap;html=1;shape=mxgraph.bootstrap.bottomButton;rSize=5;fillColor=inherit;fontColor=inherit;fontSize=12;" vertex="1" parent="IqPdjmII7tO_Si4n46rZ-31">
          <mxGeometry y="60" width="350" height="20" as="geometry" />
        </mxCell>
        <mxCell id="IqPdjmII7tO_Si4n46rZ-39" value="" style="shape=mxgraph.ios7.misc.right;strokeColor=#C4C4C4;strokeWidth=3;" vertex="1" parent="IqPdjmII7tO_Si4n46rZ-38">
          <mxGeometry x="1" y="0.5" width="6" height="12" relative="1" as="geometry">
            <mxPoint x="-25" y="-6" as="offset" />
          </mxGeometry>
        </mxCell>
        <mxCell id="IqPdjmII7tO_Si4n46rZ-40" value="&lt;div&gt;&lt;br&gt;&lt;/div&gt;" style="strokeWidth=1;html=1;shadow=0;dashed=0;shape=mxgraph.android.rect;rounded=1;fillColor=light-dark(#eeeeee, #c0c0c0);strokeColor=#36393d;gradientColor=default;gradientDirection=west;" vertex="1" parent="IqPdjmII7tO_Si4n46rZ-11">
          <mxGeometry x="432.56" y="610" width="200" height="70" as="geometry" />
        </mxCell>
        <mxCell id="IqPdjmII7tO_Si4n46rZ-41" value="&lt;div style=&quot;line-height: 50%;&quot;&gt;&lt;h4&gt;&lt;font face=&quot;Times New Roman&quot; color=&quot;#3399ff&quot;&gt;&lt;span style=&quot;caret-color: rgb(51, 153, 255);&quot;&gt;Coroutines &amp;amp;&lt;/span&gt;&lt;/font&gt;&lt;/h4&gt;&lt;div&gt;&lt;font face=&quot;Times New Roman&quot; color=&quot;#3399ff&quot;&gt;&lt;span style=&quot;caret-color: rgb(51, 153, 255);&quot;&gt;Android&lt;/span&gt;&lt;/font&gt;&lt;/div&gt;&lt;/div&gt;" style="strokeWidth=1;html=1;shadow=0;dashed=0;shape=mxgraph.android.spinner2;fontStyle=0;fontColor=#ffffff;align=center;verticalAlign=middle;strokeColor=#666666;fillColor=#666666;" vertex="1" parent="IqPdjmII7tO_Si4n46rZ-40">
          <mxGeometry x="17.094017094017094" y="10" width="170.94017094017096" height="50" as="geometry" />
        </mxCell>
        <mxCell id="IqPdjmII7tO_Si4n46rZ-42" value="" style="shape=flexArrow;endArrow=classic;html=1;rounded=0;exitX=0.4;exitY=1.083;exitDx=0;exitDy=0;exitPerimeter=0;entryX=0.5;entryY=0;entryDx=0;entryDy=0;" edge="1" parent="IqPdjmII7tO_Si4n46rZ-11" target="IqPdjmII7tO_Si4n46rZ-40">
          <mxGeometry width="50" height="50" relative="1" as="geometry">
            <mxPoint x="532.54" y="430" as="sourcePoint" />
            <mxPoint x="532.06" y="564" as="targetPoint" />
          </mxGeometry>
        </mxCell>
        <mxCell id="IqPdjmII7tO_Si4n46rZ-43" style="edgeStyle=orthogonalEdgeStyle;rounded=0;orthogonalLoop=1;jettySize=auto;html=1;entryX=1;entryY=0.5;entryDx=0;entryDy=0;strokeWidth=2;flowAnimation=1;" edge="1" parent="IqPdjmII7tO_Si4n46rZ-11" source="IqPdjmII7tO_Si4n46rZ-44" target="IqPdjmII7tO_Si4n46rZ-49">
          <mxGeometry relative="1" as="geometry">
            <Array as="points">
              <mxPoint x="385" y="884" />
            </Array>
          </mxGeometry>
        </mxCell>
        <mxCell id="IqPdjmII7tO_Si4n46rZ-44" value="&lt;h3&gt;&lt;b&gt;&lt;font face=&quot;Times New Roman&quot; style=&quot;font-size: 9px;&quot;&gt;Coroutes&lt;/font&gt;&lt;/b&gt;&lt;/h3&gt;" style="html=1;shadow=0;dashed=0;shape=mxgraph.ios.rrect;rSize=3;fontSize=8;fontColor=#ffffff;strokeColor=#ffffff;fillColor=#497198;gradientColor=#c5cee1;opacity=80;whiteSpace=wrap;sketch=0;hachureGap=4;pointerEvents=0;fontFamily=Helvetica;" vertex="1" parent="IqPdjmII7tO_Si4n46rZ-11">
          <mxGeometry x="320" y="700" width="129.75" height="40" as="geometry" />
        </mxCell>
        <mxCell id="IqPdjmII7tO_Si4n46rZ-45" value="" style="rounded=1;whiteSpace=wrap;html=1;strokeColor=#B3B3B3;arcSize=20;absoluteArcSize=1;" vertex="1" parent="IqPdjmII7tO_Si4n46rZ-11">
          <mxGeometry x="30" y="770" width="245" height="180" as="geometry" />
        </mxCell>
        <mxCell id="IqPdjmII7tO_Si4n46rZ-46" value="&lt;p style=&quot;caret-color: rgb(0, 0, 0); font-weight: 400;&quot; class=&quot;p1&quot;&gt;&lt;span style=&quot;color: light-dark(rgb(0, 0, 0), rgb(255, 255, 255));&quot;&gt;Asynchronous Programming&lt;/span&gt;&lt;/p&gt;" style="shape=partialRectangle;whiteSpace=wrap;html=1;top=0;left=0;fillColor=none;right=0;fontStyle=1;align=left;strokeColor=#B3B3B3;spacingLeft=15;part=1;resizeWidth=1;" vertex="1" parent="IqPdjmII7tO_Si4n46rZ-45">
          <mxGeometry width="244.99999999999997" height="30" relative="1" as="geometry">
            <mxPoint y="20" as="offset" />
          </mxGeometry>
        </mxCell>
        <mxCell id="IqPdjmII7tO_Si4n46rZ-47" value="&lt;p style=&quot;caret-color: rgb(0, 0, 0); color: rgb(0, 0, 0);&quot; class=&quot;p1&quot;&gt;Suspend Functions&lt;/p&gt;" style="text;html=1;strokeColor=none;fillColor=none;align=left;verticalAlign=middle;whiteSpace=wrap;rounded=0;spacingLeft=15;part=1;resizeWidth=1;" vertex="1" parent="IqPdjmII7tO_Si4n46rZ-45">
          <mxGeometry width="244.99999999999997" height="24" relative="1" as="geometry">
            <mxPoint y="54" as="offset" />
          </mxGeometry>
        </mxCell>
        <mxCell id="IqPdjmII7tO_Si4n46rZ-48" value="&lt;p style=&quot;caret-color: rgb(0, 0, 0); color: rgb(0, 0, 0);&quot; class=&quot;p1&quot;&gt;Coroutine Scopes&amp;nbsp;&lt;/p&gt;" style="text;html=1;strokeColor=none;fillColor=none;align=left;verticalAlign=middle;whiteSpace=wrap;rounded=0;spacingLeft=15;part=1;resizeWidth=1;" vertex="1" parent="IqPdjmII7tO_Si4n46rZ-45">
          <mxGeometry width="244.99999999999997" height="24" relative="1" as="geometry">
            <mxPoint y="78" as="offset" />
          </mxGeometry>
        </mxCell>
        <mxCell id="IqPdjmII7tO_Si4n46rZ-49" value="&lt;p style=&quot;caret-color: rgb(0, 0, 0); color: rgb(0, 0, 0);&quot; class=&quot;p1&quot;&gt;Dispatchers&lt;/p&gt;" style="text;html=1;strokeColor=none;fillColor=none;align=left;verticalAlign=middle;whiteSpace=wrap;rounded=0;spacingLeft=15;part=1;resizeWidth=1;" vertex="1" parent="IqPdjmII7tO_Si4n46rZ-45">
          <mxGeometry width="244.99999999999997" height="24" relative="1" as="geometry">
            <mxPoint y="102" as="offset" />
          </mxGeometry>
        </mxCell>
        <mxCell id="IqPdjmII7tO_Si4n46rZ-50" value="Perfect(less Active)" style="text;html=1;strokeColor=none;fillColor=none;align=left;verticalAlign=middle;whiteSpace=wrap;rounded=0;spacingLeft=15;part=1;resizeWidth=1;" vertex="1" parent="IqPdjmII7tO_Si4n46rZ-45">
          <mxGeometry width="244.99999999999997" height="24" relative="1" as="geometry">
            <mxPoint y="126" as="offset" />
          </mxGeometry>
        </mxCell>
        <mxCell id="IqPdjmII7tO_Si4n46rZ-51" value="" style="rounded=1;whiteSpace=wrap;html=1;strokeColor=#B3B3B3;arcSize=20;absoluteArcSize=1;" vertex="1" parent="IqPdjmII7tO_Si4n46rZ-11">
          <mxGeometry x="762.5" y="770" width="245" height="180" as="geometry" />
        </mxCell>
        <mxCell id="IqPdjmII7tO_Si4n46rZ-52" value="&lt;p style=&quot;caret-color: rgb(0, 0, 0); color: rgb(0, 0, 0); font-weight: 400;&quot; class=&quot;p1&quot;&gt;Kotlin for Android&lt;/p&gt;" style="shape=partialRectangle;whiteSpace=wrap;html=1;top=0;left=0;fillColor=none;right=0;fontStyle=1;align=left;strokeColor=#B3B3B3;spacingLeft=15;part=1;resizeWidth=1;" vertex="1" parent="IqPdjmII7tO_Si4n46rZ-51">
          <mxGeometry width="244.99999999999997" height="30" relative="1" as="geometry">
            <mxPoint y="20" as="offset" />
          </mxGeometry>
        </mxCell>
        <mxCell id="IqPdjmII7tO_Si4n46rZ-53" value="&lt;p style=&quot;caret-color: rgb(0, 0, 0); color: rgb(0, 0, 0);&quot; class=&quot;p1&quot;&gt;Android Studio + Kotlin Setup&lt;/p&gt;" style="text;html=1;strokeColor=none;fillColor=none;align=left;verticalAlign=middle;whiteSpace=wrap;rounded=0;spacingLeft=15;part=1;resizeWidth=1;" vertex="1" parent="IqPdjmII7tO_Si4n46rZ-51">
          <mxGeometry width="244.99999999999997" height="24" relative="1" as="geometry">
            <mxPoint y="54" as="offset" />
          </mxGeometry>
        </mxCell>
        <mxCell id="IqPdjmII7tO_Si4n46rZ-54" value="&lt;p style=&quot;caret-color: rgb(0, 0, 0); color: rgb(0, 0, 0);&quot; class=&quot;p1&quot;&gt;XML Layouts + Kotlin Integration&lt;/p&gt;" style="text;html=1;strokeColor=none;fillColor=none;align=left;verticalAlign=middle;whiteSpace=wrap;rounded=0;spacingLeft=15;part=1;resizeWidth=1;" vertex="1" parent="IqPdjmII7tO_Si4n46rZ-51">
          <mxGeometry width="244.99999999999997" height="24" relative="1" as="geometry">
            <mxPoint y="78" as="offset" />
          </mxGeometry>
        </mxCell>
        <mxCell id="IqPdjmII7tO_Si4n46rZ-55" value="&lt;p style=&quot;caret-color: rgb(0, 0, 0); color: rgb(0, 0, 0);&quot; class=&quot;p1&quot;&gt;Jetpack Compose (modern UI)&lt;/p&gt;" style="text;html=1;strokeColor=none;fillColor=none;align=left;verticalAlign=middle;whiteSpace=wrap;rounded=0;spacingLeft=15;part=1;resizeWidth=1;" vertex="1" parent="IqPdjmII7tO_Si4n46rZ-51">
          <mxGeometry width="244.99999999999997" height="24" relative="1" as="geometry">
            <mxPoint y="102" as="offset" />
          </mxGeometry>
        </mxCell>
        <mxCell id="IqPdjmII7tO_Si4n46rZ-56" value="&lt;p style=&quot;caret-color: rgb(0, 0, 0); color: rgb(0, 0, 0);&quot; class=&quot;p1&quot;&gt;&lt;span class=&quot;Apple-tab-span&quot;&gt;&lt;/span&gt;LiveData / ViewModel&lt;/p&gt;" style="text;html=1;strokeColor=none;fillColor=none;align=left;verticalAlign=middle;whiteSpace=wrap;rounded=0;spacingLeft=15;part=1;resizeWidth=1;" vertex="1" parent="IqPdjmII7tO_Si4n46rZ-51">
          <mxGeometry width="244.99999999999997" height="24" relative="1" as="geometry">
            <mxPoint y="126" as="offset" />
          </mxGeometry>
        </mxCell>
        <mxCell id="IqPdjmII7tO_Si4n46rZ-57" value="&lt;div&gt;&lt;br&gt;&lt;/div&gt;" style="strokeWidth=1;html=1;shadow=0;dashed=0;shape=mxgraph.android.rect;rounded=1;fillColor=light-dark(#eeeeee, #c0c0c0);strokeColor=#36393d;gradientColor=default;gradientDirection=west;" vertex="1" parent="IqPdjmII7tO_Si4n46rZ-11">
          <mxGeometry x="432.56" y="968" width="200" height="70" as="geometry" />
        </mxCell>
        <mxCell id="IqPdjmII7tO_Si4n46rZ-58" value="&lt;h4&gt;&lt;p style=&quot;caret-color: rgb(0, 0, 0); text-align: start; white-space: normal;&quot; class=&quot;p1&quot;&gt;&lt;font style=&quot;color: light-dark(rgb(0, 0, 0), rgb(51, 153, 255));&quot; face=&quot;Times New Roman&quot;&gt;Advanced Topics&lt;/font&gt;&lt;/p&gt;&lt;/h4&gt;" style="strokeWidth=1;html=1;shadow=0;dashed=0;shape=mxgraph.android.spinner2;fontStyle=0;fontColor=#ffffff;align=center;verticalAlign=middle;strokeColor=#666666;fillColor=#666666;" vertex="1" parent="IqPdjmII7tO_Si4n46rZ-57">
          <mxGeometry x="17.094017094017094" y="10" width="170.94017094017096" height="50" as="geometry" />
        </mxCell>
        <mxCell id="IqPdjmII7tO_Si4n46rZ-59" style="edgeStyle=orthogonalEdgeStyle;rounded=0;orthogonalLoop=1;jettySize=auto;html=1;flowAnimation=1;" edge="1" parent="IqPdjmII7tO_Si4n46rZ-11" source="IqPdjmII7tO_Si4n46rZ-60">
          <mxGeometry relative="1" as="geometry">
            <mxPoint x="760" y="870" as="targetPoint" />
            <Array as="points">
              <mxPoint x="690" y="870" />
              <mxPoint x="760" y="870" />
            </Array>
          </mxGeometry>
        </mxCell>
        <mxCell id="IqPdjmII7tO_Si4n46rZ-60" value="&lt;h3&gt;&lt;b&gt;&lt;font face=&quot;Times New Roman&quot;&gt;Database Integration&lt;/font&gt;&lt;/b&gt;&lt;/h3&gt;" style="html=1;shadow=0;dashed=0;shape=mxgraph.ios.rrect;rSize=3;fontSize=8;fontColor=#ffffff;strokeColor=#ffffff;fillColor=#497198;gradientColor=#c5cee1;opacity=80;whiteSpace=wrap;sketch=0;hachureGap=4;pointerEvents=0;fontFamily=Helvetica;" vertex="1" parent="IqPdjmII7tO_Si4n46rZ-11">
          <mxGeometry x="629.88" y="700" width="129.75" height="40" as="geometry" />
        </mxCell>
        <mxCell id="IqPdjmII7tO_Si4n46rZ-61" value="" style="html=1;shadow=0;dashed=0;align=center;verticalAlign=middle;shape=mxgraph.arrows2.jumpInArrow;dy=15;dx=38;arrowHead=46;flipV=0;flipH=1;strokeWidth=3;sketch=1;curveFitting=1;jiggle=2;" vertex="1" parent="IqPdjmII7tO_Si4n46rZ-11">
          <mxGeometry x="639.88" y="620" width="90" height="70" as="geometry" />
        </mxCell>
        <mxCell id="IqPdjmII7tO_Si4n46rZ-62" value="" style="html=1;shadow=0;dashed=0;align=center;verticalAlign=middle;shape=mxgraph.arrows2.jumpInArrow;dy=15;dx=38;arrowHead=46;strokeWidth=3;sketch=1;curveFitting=1;jiggle=2;" vertex="1" parent="IqPdjmII7tO_Si4n46rZ-11">
          <mxGeometry x="339.88" y="620" width="90" height="70" as="geometry" />
        </mxCell>
        <mxCell id="IqPdjmII7tO_Si4n46rZ-63" value="" style="shape=flexArrow;endArrow=classic;html=1;rounded=0;exitX=0.5;exitY=1;exitDx=0;exitDy=0;" edge="1" parent="IqPdjmII7tO_Si4n46rZ-11" source="IqPdjmII7tO_Si4n46rZ-40">
          <mxGeometry width="50" height="50" relative="1" as="geometry">
            <mxPoint x="537.62" y="680" as="sourcePoint" />
            <mxPoint x="533" y="960" as="targetPoint" />
          </mxGeometry>
        </mxCell>
        <mxCell id="IqPdjmII7tO_Si4n46rZ-64" value="" style="group;flipV=0;flipH=1;" vertex="1" connectable="0" parent="IqPdjmII7tO_Si4n46rZ-11">
          <mxGeometry x="590" y="1090" width="185" height="142" as="geometry" />
        </mxCell>
        <mxCell id="IqPdjmII7tO_Si4n46rZ-65" value="" style="endArrow=none;html=1;rounded=0;entryX=0.792;entryY=1.014;entryDx=0;entryDy=0;entryPerimeter=0;flowAnimation=1;" edge="1" parent="IqPdjmII7tO_Si4n46rZ-64" target="IqPdjmII7tO_Si4n46rZ-57">
          <mxGeometry width="50" height="50" relative="1" as="geometry">
            <mxPoint y="72" as="sourcePoint" />
            <mxPoint x="-52.08000000000004" y="22" as="targetPoint" />
          </mxGeometry>
        </mxCell>
        <mxCell id="IqPdjmII7tO_Si4n46rZ-66" value="" style="endArrow=none;html=1;rounded=0;entryX=0.142;entryY=1;entryDx=0;entryDy=0;entryPerimeter=0;flowAnimation=1;" edge="1" parent="IqPdjmII7tO_Si4n46rZ-64">
          <mxGeometry width="50" height="50" relative="1" as="geometry">
            <mxPoint x="80" y="142" as="sourcePoint" />
            <mxPoint x="79" as="targetPoint" />
          </mxGeometry>
        </mxCell>
        <mxCell id="IqPdjmII7tO_Si4n46rZ-67" value="" style="endArrow=none;html=1;rounded=0;flowAnimation=1;" edge="1" parent="IqPdjmII7tO_Si4n46rZ-64">
          <mxGeometry width="50" height="50" relative="1" as="geometry">
            <mxPoint y="72" as="sourcePoint" />
            <mxPoint x="80" y="72" as="targetPoint" />
          </mxGeometry>
        </mxCell>
        <mxCell id="IqPdjmII7tO_Si4n46rZ-68" value="" style="endArrow=classic;html=1;rounded=0;flowAnimation=1;" edge="1" parent="IqPdjmII7tO_Si4n46rZ-64">
          <mxGeometry width="50" height="50" relative="1" as="geometry">
            <mxPoint x="80" y="2" as="sourcePoint" />
            <mxPoint x="180" y="2" as="targetPoint" />
          </mxGeometry>
        </mxCell>
        <mxCell id="IqPdjmII7tO_Si4n46rZ-69" value="" style="endArrow=classic;html=1;rounded=0;flowAnimation=1;" edge="1" parent="IqPdjmII7tO_Si4n46rZ-64">
          <mxGeometry width="50" height="50" relative="1" as="geometry">
            <mxPoint x="80" y="70" as="sourcePoint" />
            <mxPoint x="180" y="70" as="targetPoint" />
          </mxGeometry>
        </mxCell>
        <mxCell id="IqPdjmII7tO_Si4n46rZ-70" value="" style="endArrow=classic;html=1;rounded=0;flowAnimation=1;" edge="1" parent="IqPdjmII7tO_Si4n46rZ-64">
          <mxGeometry width="50" height="50" relative="1" as="geometry">
            <mxPoint x="85" y="142" as="sourcePoint" />
            <mxPoint x="185" y="142" as="targetPoint" />
          </mxGeometry>
        </mxCell>
        <mxCell id="IqPdjmII7tO_Si4n46rZ-71" value="" style="group" vertex="1" connectable="0" parent="IqPdjmII7tO_Si4n46rZ-11">
          <mxGeometry x="275" y="1088" width="185" height="142" as="geometry" />
        </mxCell>
        <mxCell id="IqPdjmII7tO_Si4n46rZ-72" value="" style="endArrow=none;html=1;rounded=0;entryX=0.142;entryY=1;entryDx=0;entryDy=0;entryPerimeter=0;flowAnimation=1;" edge="1" parent="IqPdjmII7tO_Si4n46rZ-71" target="IqPdjmII7tO_Si4n46rZ-57">
          <mxGeometry width="50" height="50" relative="1" as="geometry">
            <mxPoint x="185" y="72" as="sourcePoint" />
            <mxPoint x="237.08000000000004" y="22" as="targetPoint" />
          </mxGeometry>
        </mxCell>
        <mxCell id="IqPdjmII7tO_Si4n46rZ-73" value="" style="endArrow=none;html=1;rounded=0;entryX=0.142;entryY=1;entryDx=0;entryDy=0;entryPerimeter=0;flowAnimation=1;" edge="1" parent="IqPdjmII7tO_Si4n46rZ-71">
          <mxGeometry width="50" height="50" relative="1" as="geometry">
            <mxPoint x="105" y="142" as="sourcePoint" />
            <mxPoint x="106" as="targetPoint" />
          </mxGeometry>
        </mxCell>
        <mxCell id="IqPdjmII7tO_Si4n46rZ-74" value="" style="endArrow=none;html=1;rounded=0;flowAnimation=1;" edge="1" parent="IqPdjmII7tO_Si4n46rZ-71">
          <mxGeometry width="50" height="50" relative="1" as="geometry">
            <mxPoint x="185" y="72" as="sourcePoint" />
            <mxPoint x="105" y="72" as="targetPoint" />
          </mxGeometry>
        </mxCell>
        <mxCell id="IqPdjmII7tO_Si4n46rZ-75" value="" style="endArrow=classic;html=1;rounded=0;flowAnimation=1;" edge="1" parent="IqPdjmII7tO_Si4n46rZ-71">
          <mxGeometry width="50" height="50" relative="1" as="geometry">
            <mxPoint x="105" y="2" as="sourcePoint" />
            <mxPoint x="5" y="2" as="targetPoint" />
          </mxGeometry>
        </mxCell>
        <mxCell id="IqPdjmII7tO_Si4n46rZ-76" value="" style="endArrow=classic;html=1;rounded=0;flowAnimation=1;" edge="1" parent="IqPdjmII7tO_Si4n46rZ-71">
          <mxGeometry width="50" height="50" relative="1" as="geometry">
            <mxPoint x="105" y="70" as="sourcePoint" />
            <mxPoint x="5" y="70" as="targetPoint" />
          </mxGeometry>
        </mxCell>
        <mxCell id="IqPdjmII7tO_Si4n46rZ-77" value="" style="endArrow=classic;html=1;rounded=0;flowAnimation=1;" edge="1" parent="IqPdjmII7tO_Si4n46rZ-71">
          <mxGeometry width="50" height="50" relative="1" as="geometry">
            <mxPoint x="100" y="142" as="sourcePoint" />
            <mxPoint y="142" as="targetPoint" />
          </mxGeometry>
        </mxCell>
        <mxCell id="IqPdjmII7tO_Si4n46rZ-78" value="" style="group" vertex="1" connectable="0" parent="IqPdjmII7tO_Si4n46rZ-11">
          <mxGeometry x="101" y="1080" width="174" height="155" as="geometry" />
        </mxCell>
        <mxCell id="IqPdjmII7tO_Si4n46rZ-79" value="&lt;b style=&quot;caret-color: rgb(237, 237, 237); font-size: 12px; text-align: left; color: rgb(196, 251, 255);&quot;&gt;Authentication &amp;amp; Security&lt;/b&gt;" style="strokeWidth=1;html=1;shadow=0;dashed=0;shape=mxgraph.ios.iScreenNameBar;fillColor2=#000000;fillColor3=#ffffff;buttonText=;fontColor=#ffffff;fontSize=10;whiteSpace=wrap;align=center;sketch=0;" vertex="1" parent="IqPdjmII7tO_Si4n46rZ-78">
          <mxGeometry width="174" height="25" as="geometry" />
        </mxCell>
        <mxCell id="IqPdjmII7tO_Si4n46rZ-80" value="&lt;b style=&quot;caret-color: rgb(237, 237, 237); font-size: 12px; text-align: left; color: rgb(112, 187, 178);&quot;&gt;API Development&lt;/b&gt;" style="strokeWidth=1;html=1;shadow=0;dashed=0;shape=mxgraph.ios.iScreenNameBar;fillColor2=#000000;fillColor3=#ffffff;buttonText=;fontColor=#ffffff;fontSize=10;whiteSpace=wrap;align=center;sketch=0;" vertex="1" parent="IqPdjmII7tO_Si4n46rZ-78">
          <mxGeometry y="66" width="174" height="25" as="geometry" />
        </mxCell>
        <mxCell id="IqPdjmII7tO_Si4n46rZ-81" value="&lt;b style=&quot;caret-color: rgb(237, 237, 237); color: rgb(237, 237, 237); font-size: 12px; text-align: left;&quot;&gt;Testing &amp;amp; Debugging&lt;/b&gt;" style="strokeWidth=1;html=1;shadow=0;dashed=0;shape=mxgraph.ios.iScreenNameBar;fillColor2=#000000;fillColor3=#ffffff;buttonText=;fontColor=#ffffff;fontSize=10;whiteSpace=wrap;align=center;sketch=0;" vertex="1" parent="IqPdjmII7tO_Si4n46rZ-78">
          <mxGeometry y="130" width="174" height="25" as="geometry" />
        </mxCell>
        <mxCell id="IqPdjmII7tO_Si4n46rZ-82" value="" style="group" vertex="1" connectable="0" parent="IqPdjmII7tO_Si4n46rZ-11">
          <mxGeometry x="780" y="1080" width="190" height="170" as="geometry" />
        </mxCell>
        <mxCell id="IqPdjmII7tO_Si4n46rZ-83" value="&lt;b style=&quot;caret-color: rgb(237, 237, 237); color: rgb(237, 237, 237); font-size: 12px; text-align: left;&quot;&gt;Deployment&lt;/b&gt;" style="strokeWidth=1;html=1;shadow=0;dashed=0;shape=mxgraph.ios.iScreenNameBar;fillColor2=#000000;fillColor3=#ffffff;buttonText=;fontColor=#ffffff;fontSize=10;whiteSpace=wrap;align=center;sketch=0;" vertex="1" parent="IqPdjmII7tO_Si4n46rZ-82">
          <mxGeometry width="190.00000000000003" height="27.419354838709676" as="geometry" />
        </mxCell>
        <mxCell id="IqPdjmII7tO_Si4n46rZ-84" value="&lt;b style=&quot;caret-color: rgb(237, 237, 237); color: rgb(143, 254, 178); font-size: 12px; text-align: left;&quot;&gt;Networking&lt;/b&gt;" style="strokeWidth=1;html=1;shadow=0;dashed=0;shape=mxgraph.ios.iScreenNameBar;fillColor2=#000000;fillColor3=#ffffff;buttonText=;fontColor=#ffffff;fontSize=10;whiteSpace=wrap;align=center;sketch=0;" vertex="1" parent="IqPdjmII7tO_Si4n46rZ-82">
          <mxGeometry y="72.38709677419354" width="190.00000000000003" height="27.419354838709676" as="geometry" />
        </mxCell>
        <mxCell id="IqPdjmII7tO_Si4n46rZ-85" value="&lt;p style=&quot;caret-color: rgb(0, 0, 0); text-align: start;&quot; class=&quot;p1&quot;&gt;&lt;b style=&quot;color: light-dark(rgb(0, 0, 0), rgb(35, 35, 35));&quot;&gt;&lt;font style=&quot;font-size: 12px;&quot;&gt;Swift Package Manager&lt;/font&gt;&lt;/b&gt;&lt;/p&gt;" style="strokeWidth=1;html=1;shadow=0;dashed=0;shape=mxgraph.ios.iScreenNameBar;fillColor2=#000000;fillColor3=#ffffff;buttonText=;fontColor=#ffffff;fontSize=10;whiteSpace=wrap;align=center;sketch=0;" vertex="1" parent="IqPdjmII7tO_Si4n46rZ-82">
          <mxGeometry y="142.5806451612903" width="190.00000000000003" height="27.419354838709676" as="geometry" />
        </mxCell>
        <mxCell id="IqPdjmII7tO_Si4n46rZ-86" style="edgeStyle=orthogonalEdgeStyle;rounded=0;orthogonalLoop=1;jettySize=auto;html=1;flowAnimation=1;" edge="1" parent="IqPdjmII7tO_Si4n46rZ-11">
          <mxGeometry relative="1" as="geometry">
            <mxPoint x="879.75" y="500" as="targetPoint" />
            <mxPoint x="739.75" y="470" as="sourcePoint" />
          </mxGeometry>
        </mxCell>
      </root>
    </mxGraphModel>
  </diagram>
</mxfile>
